<svg xmlns="http://www.w3.org/2000/svg" xmlns:xlink="http://www.w3.org/1999/xlink" width="20" height="20" viewBox="0 0 20 20">
    <defs>
        <path id="prefix__a" d="M0 0H20V20H0z"/>
    </defs>
    <g fill="none" fill-rule="evenodd">
        <mask id="prefix__b" fill="#fff">
            <use xlink:href="#prefix__a"/>
        </mask>
        <g fill="#F1F5F7" fill-rule="nonzero" mask="url(#prefix__b)">
            <path d="M19.734 1.12c-.17-.17-.402-.267-.643-.267L.909.855C.407.855 0 1.26 0 1.764v13.332c0 .502.407.909.91.909h5.757v1.818h-.91c-.501 0-.909.407-.909.91 0 .501.408.908.91.908h8.484c.502 0 .91-.407.91-.909s-.408-.909-.91-.909h-.909v-1.818h5.758c.502 0 .909-.407.909-.91V1.764c0-.242-.096-.473-.266-.643zM5.454 11.46c0 .502-.406.909-.909.909-.502 0-.909-.407-.909-.91V8.43c0-.502.407-.909.91-.909.502 0 .909.407.909.91v3.029zm3.637 0c0 .502-.407.909-.91.909-.501 0-.908-.407-.908-.91V6.007c0-.502.407-.909.909-.909s.909.407.909.91v5.453zm3.636 0c0 .502-.407.909-.909.909s-.909-.407-.909-.91V7.825c0-.502.407-.909.91-.909.501 0 .908.407.908.91v3.635zm3.637 0c0 .502-.407.909-.91.909-.502 0-.909-.407-.909-.91V5.4c0-.502.407-.91.91-.91.502 0 .909.408.909.91v6.06z"/>
        </g>
    </g>
</svg>
