<svg xmlns="http://www.w3.org/2000/svg" xmlns:xlink="http://www.w3.org/1999/xlink" width="80" height="80" viewBox="0 0 80 80">
    <defs>
        <path id="a" d="M0 .024h79.976v79.915H0z"/>
    </defs>
    <g fill="none" fill-rule="evenodd">
        <path fill="#1D75BA" d="M12.3 77.255c-5.28 0-9.577-4.293-9.577-9.57V12.352c0-5.277 4.297-9.57 9.578-9.57h55.374c5.282 0 9.578 4.293 9.578 9.57v55.333c0 5.277-4.296 9.57-9.578 9.57H12.301z"/>
        <g transform="translate(0 .037)">
            <mask id="b" fill="#fff">
                <use xlink:href="#a"/>
            </mask>
            <path fill="#FECD09" d="M67.675.024H12.301C5.507.024 0 5.527 0 12.315v55.333c0 6.788 5.507 12.291 12.3 12.291h55.375c6.794 0 12.301-5.503 12.301-12.291V12.315c0-6.788-5.507-12.291-12.3-12.291m0 5.442c1.83 0 3.552.712 4.846 2.006a6.802 6.802 0 0 1 2.008 4.843v55.333c0 1.83-.713 3.55-2.008 4.843a6.813 6.813 0 0 1-4.847 2.006H12.301a6.812 6.812 0 0 1-4.847-2.006 6.802 6.802 0 0 1-2.008-4.843V12.315c0-1.83.713-3.55 2.008-4.843A6.812 6.812 0 0 1 12.3 5.466h55.374" mask="url(#b)"/>
        </g>
        <path fill="#FEFEFE" d="M71.036 40.036c0 17.134-13.9 31.024-31.048 31.024-17.147 0-31.048-13.89-31.048-31.024 0-17.135 13.9-31.06 31.048-31.06 17.148 0 31.048 13.925 31.048 31.06"/>
        <path fill="#0270B4" d="M39.463 30.09h-6.041c-.1 0-.18.08-.18.18v1.81c0 .099.08.18.18.18h1.935v5.878a2.17 2.17 0 0 0 2.17 2.169v-8.048h1.936c.1 0 .18-.08.18-.18V30.27c0-.1-.08-.18-.18-.18M46.268 30.09h-6.042c-.099 0-.18.08-.18.18v1.81c0 .099.081.18.18.18h1.936v5.878a2.17 2.17 0 0 0 2.17 2.169v-8.048h1.936c.1 0 .18-.08.18-.18V30.27c0-.1-.08-.18-.18-.18"/>
        <path fill="#DF3D50" d="M27.732 39.125a3.928 3.928 0 0 1-3.925-3.922 3.928 3.928 0 0 1 3.925-3.922 3.928 3.928 0 0 1 3.925 3.922 3.928 3.928 0 0 1-3.925 3.922m0-7.109a3.192 3.192 0 0 0-3.19 3.187 3.192 3.192 0 0 0 3.19 3.187c1.759 0 3.19-1.43 3.19-3.187a3.192 3.192 0 0 0-3.19-3.187"/>
        <path fill="#DF3D50" d="M27.732 40.307a5.111 5.111 0 0 1-5.107-5.104 5.11 5.11 0 0 1 5.107-5.103 5.11 5.11 0 0 1 5.107 5.103 5.111 5.111 0 0 1-5.107 5.104m0-9.472a4.375 4.375 0 0 0-4.372 4.368 4.375 4.375 0 0 0 4.372 4.369c2.41 0 4.372-1.96 4.372-4.37a4.375 4.375 0 0 0-4.372-4.367"/>
        <path fill="#DF3D50" d="M27.732 37.97a2.77 2.77 0 0 1-2.769-2.766 2.77 2.77 0 0 1 2.77-2.767 2.77 2.77 0 0 1 2.768 2.767 2.77 2.77 0 0 1-2.769 2.766m0-4.798a2.035 2.035 0 0 0-2.033 2.032c0 1.12.912 2.03 2.033 2.03s2.033-.91 2.033-2.03c0-1.12-.912-2.032-2.033-2.032M52.067 39.19c-2.2 0-3.99-1.788-3.99-3.987a3.993 3.993 0 0 1 3.99-3.987c2.2 0 3.99 1.789 3.99 3.987a3.993 3.993 0 0 1-3.99 3.987m0-7.226a3.245 3.245 0 0 0-3.242 3.24 3.245 3.245 0 0 0 3.242 3.239 3.245 3.245 0 0 0 3.242-3.24 3.245 3.245 0 0 0-3.242-3.24"/>
        <path fill="#DF3D50" d="M52.067 40.391a5.196 5.196 0 0 1-5.191-5.188 5.195 5.195 0 0 1 5.191-5.187 5.195 5.195 0 0 1 5.192 5.187 5.196 5.196 0 0 1-5.192 5.188m0-9.628a4.447 4.447 0 0 0-4.444 4.44 4.448 4.448 0 0 0 4.444 4.44 4.448 4.448 0 0 0 4.444-4.44 4.447 4.447 0 0 0-4.444-4.44"/>
        <path fill="#DF3D50" d="M52.067 38.016a2.816 2.816 0 0 1-2.814-2.812 2.817 2.817 0 0 1 2.814-2.813 2.817 2.817 0 0 1 2.815 2.813 2.816 2.816 0 0 1-2.815 2.812m0-4.878c-1.14 0-2.066.927-2.066 2.066 0 1.138.927 2.064 2.066 2.064 1.14 0 2.067-.926 2.067-2.064a2.068 2.068 0 0 0-2.067-2.066"/>
        <path fill="#0270B4" d="M63.507 44.242l-3.088-3.086a.359.359 0 0 0-.507 0l-.857.857a.358.358 0 0 0 0 .507l1.037 1.036c-1.807 3.985-5.602 7.988-5.717 8.09-11.27 10.011-22.18 5.934-29.095 0-1.1-.943-4.554-5.456-5.376-7.933l1.017-1.016a.358.358 0 0 0 0-.507l-.857-.856a.359.359 0 0 0-.507 0l-3.088 3.085a.358.358 0 0 0 0 .507l.857.857c.14.14.367.14.508 0l.884-.884c.84 2.815 4.353 7.118 5.184 7.874 11.027 10.033 24.17 7.508 31.809 0 0 0 3.656-4.108 5.485-8.114l.947.946c.14.14.367.14.507 0l.857-.856a.358.358 0 0 0 0-.507"/>
        <path fill="#0270B4" d="M64.465 44.212l-4.007-4.004a.359.359 0 0 0-.507 0l-1.788 1.786a.358.358 0 0 0 0 .507l1 1c-1.807 3.984-5.024 7.244-5.133 7.352-10.147 10.141-22.373 6.253-28.745-.35-1.006-1.042-3.588-4.38-4.409-6.857l.963-.962a.358.358 0 0 0 0-.507l-1.771-1.77a.359.359 0 0 0-.508 0l-3.999 3.997a.358.358 0 0 0 0 .506l1.771 1.77c.14.14.367.14.507 0l.65-.65c.84 2.816 4.397 6.647 5.19 7.442 10.148 10.191 24.846 7.899 32.448-.164 0 0 3.444-3.566 5.274-7.572l.77.769c.14.14.366.14.506 0l1.788-1.786a.358.358 0 0 0 0-.507"/>
        <path fill="#0270B4" d="M29.488 46.155h.198c.183 0 .315-.058.396-.173l1.203-1.743a.516.516 0 0 1 .225-.195.826.826 0 0 1 .31-.05h1.078l-1.584 2.157a1.055 1.055 0 0 1-.363.322.944.944 0 0 1 .255.141c.077.06.147.14.21.24l1.614 2.477h-1.108a.96.96 0 0 1-.181-.015.462.462 0 0 1-.13-.044.373.373 0 0 1-.096-.071.707.707 0 0 1-.077-.097l-1.21-1.858a.364.364 0 0 0-.166-.144.724.724 0 0 0-.273-.043h-.3v2.272c-.685 0-1.24-.555-1.24-1.239v-3.961c0-.076.062-.138.138-.138h.963c.076 0 .138.062.138.138v2.024zM35.49 47.29h1.459l-.492-1.461-.112-.328a8.223 8.223 0 0 1-.126-.409 7.287 7.287 0 0 1-.238.744l-.492 1.454zm3.431 2.04h-.96a.445.445 0 0 1-.266-.074.387.387 0 0 1-.145-.193l-.315-.93h-2.031l-.316.93a.412.412 0 0 1-.143.185.412.412 0 0 1-.26.083h-.968l1.989-5.134a.32.32 0 0 1 .298-.204h.83a.32.32 0 0 1 .298.204l1.989 5.134zM42.796 45.077a.465.465 0 0 1-.115.132.26.26 0 0 1-.156.044.38.38 0 0 1-.182-.053 35.097 35.097 0 0 0-.22-.119 1.827 1.827 0 0 0-.28-.119 1.124 1.124 0 0 0-.36-.053c-.232 0-.405.05-.518.148a.505.505 0 0 0-.17.402.37.37 0 0 0 .102.267c.068.07.158.132.27.183.11.051.238.098.38.141.144.043.29.09.439.143.149.053.295.114.438.185.143.07.27.161.381.271.111.11.201.244.27.401.068.158.102.348.102.57 0 .247-.042.477-.128.692-.086.215-.21.403-.372.563-.163.16-.363.285-.601.377a2.251 2.251 0 0 1-.812.137c-.167 0-.336-.017-.508-.05a3.013 3.013 0 0 1-.955-.367 2.127 2.127 0 0 1-.16-.107.294.294 0 0 1-.074-.394l.23-.364a.322.322 0 0 1 .271-.147c.074 0 .148.024.222.07.075.047.16.098.253.154.094.056.202.108.325.154.122.046.266.07.432.07.225 0 .4-.05.525-.149.124-.099.187-.256.187-.47a.445.445 0 0 0-.103-.305.793.793 0 0 0-.27-.194 2.486 2.486 0 0 0-.38-.135c-.14-.04-.286-.083-.435-.13a3.195 3.195 0 0 1-.437-.176 1.284 1.284 0 0 1-.649-.7 1.685 1.685 0 0 1-.102-.628 1.513 1.513 0 0 1 .476-1.095 1.75 1.75 0 0 1 .576-.358c.227-.089.488-.133.78-.133.165 0 .324.012.48.038a2.522 2.522 0 0 1 .832.293c.038.022.075.045.111.07.126.084.168.25.097.384l-.192.357zM45.615 49.33a1.246 1.246 0 0 1-1.246-1.245V44.12c0-.07.056-.126.126-.126h1.022c.054 0 .098.044.098.099v5.239zM48.31 46.503h.498c.17 0 .313-.022.431-.065a.779.779 0 0 0 .292-.177.677.677 0 0 0 .165-.266c.034-.101.051-.21.051-.328 0-.234-.076-.417-.23-.55-.152-.131-.388-.197-.709-.197h-.498v1.583zm0 .853v1.975c-.685 0-1.24-.555-1.24-1.239v-3.797c0-.167.136-.302.303-.302h1.435c.387 0 .716.04.988.12.273.079.495.19.668.33.172.142.297.31.376.503.078.193.117.403.117.63 0 .173-.023.337-.07.49a1.489 1.489 0 0 1-.207.427c-.092.131-.204.248-.337.35a1.793 1.793 0 0 1-.46.253c.083.042.16.093.232.154a.92.92 0 0 1 .19.223l1.136 1.858h-1.122c-.208 0-.357-.078-.447-.235l-.888-1.55a.374.374 0 0 0-.137-.146.46.46 0 0 0-.222-.044h-.315z"/>
    </g>
</svg>
